HIERARCHY
ROOT Hips
{
  OFFSET 3.13124 94.3669 -3.18751
  CHANNELS  6 Xposition Yposition Zposition Zrotation Xrotation Yrotation
  JOINT LeftUpLeg
  {
    OFFSET 8.64259 1.95398 -2.38835
    CHANNELS 3 Zrotation Xrotation Yrotation
    JOINT LeftLeg
    {
      OFFSET 43.7702 0 0
      CHANNELS 3 Zrotation Xrotation Yrotation
      JOINT LeftFoot
      {
        OFFSET 40.6238 0 0
        CHANNELS 3 Zrotation Xrotation Yrotation
        JOINT LeftToeBase
        {
          OFFSET 12.7242 0 0
          CHANNELS 3 Zrotation Xrotation Yrotation
          End Site
          {
            OFFSET 0 0 0
          }
        }
      }
    }
  }
  JOINT RightUpLeg
  {
    OFFSET -8.2249 1.95398 -2.59336
    CHANNELS 3 Zrotation Xrotation Yrotation
    JOINT RightLeg
    {
      OFFSET 43.5653 0 0
      CHANNELS 3 Zrotation Xrotation Yrotation
      JOINT RightFoot
      {
        OFFSET 40.6238 0 0
        CHANNELS 3 Zrotation Xrotation Yrotation
        JOINT RightToeBase
        {
          OFFSET 12.7242 0 0
          CHANNELS 3 Zrotation Xrotation Yrotation
          End Site
          {
            OFFSET 0 0 0
          }
        }
      }
    }
  }
  JOINT Spine
  {
    OFFSET 0.165834 0.87714 6.61349
    CHANNELS 3 Zrotation Xrotation Yrotation
    JOINT Spine1
    {
      OFFSET 7.38962 1.71661e-005 0
      CHANNELS 3 Zrotation Xrotation Yrotation
      JOINT Spine2
      {
        OFFSET 11.9445 1.14441e-005 0
        CHANNELS 3 Zrotation Xrotation Yrotation
        JOINT Spine3
        {
          OFFSET 14.7254 4.19617e-005 0
          CHANNELS 3 Zrotation Xrotation Yrotation
          JOINT Spine4
          {
            OFFSET 10.9679 0 0
            CHANNELS 3 Zrotation Xrotation Yrotation
            JOINT RightShoulder
            {
              OFFSET 2.46616 -1.6653 3.69651
              CHANNELS 3 Zrotation Xrotation Yrotation
              JOINT RightArm
              {
                OFFSET 13.0012 0 0
                CHANNELS 3 Zrotation Xrotation Yrotation
                JOINT RightForeArm
                {
                  OFFSET 28.7848 1.52588e-005 0
                  CHANNELS 3 Zrotation Xrotation Yrotation
                  JOINT RightHand
                  {
                    OFFSET 26.5688 1.52588e-005 0
                    CHANNELS 3 Zrotation Xrotation Yrotation
                    End Site
                    {
                      OFFSET 0 0 0
                    }
                  }
                }
              }
            }
            JOINT LeftShoulder
            {
              OFFSET 2.38034 -1.29275 -3.75231
              CHANNELS 3 Zrotation Xrotation Yrotation
              JOINT LeftArm
              {
                OFFSET 16.3182 6.10352e-005 0
                CHANNELS 3 Zrotation Xrotation Yrotation
                JOINT LeftForeArm
                {
                  OFFSET 27.0901 0 0
                  CHANNELS 3 Zrotation Xrotation Yrotation
                  JOINT LeftHand
                  {
                    OFFSET 24.5451 1.52588e-005 0
                    CHANNELS 3 Zrotation Xrotation Yrotation
                    End Site
                    {
                      OFFSET 0 0 0
                    }
                  }
                }
              }
            }
            JOINT Neck
            {
              OFFSET 5.0226 -0.0266342 0
              CHANNELS 3 Zrotation Xrotation Yrotation
              JOINT Head
              {
                OFFSET 6.69363 2.86102e-005 0
                CHANNELS 3 Zrotation Xrotation Yrotation
                End Site
                {
                  OFFSET 0 0 0
                }
              }
            }
          }
        }
      }
    }
  }
}
MOTION
Frames:	6
Frame Time:	0.0333333
56.1331 95.9327 67.1661 98.3906 -4.8548 92.6316 177.714 6.90435 74.4255 -41.8055 -29.6537 -1.79137 17.5775 -10.1487 -15.4686 28.7808 2.88281e-006 2.70239e-006 179.041 15.8982 87.9892 -4.73141 -50.8204 -3.20568 27.2648 18.5307 21.7383 28.7808 1.50761e-005 1.87604e-005 -0.587445 6.82689 -91.47 13.1628 -1.68151 -4.10483 1.48675 -1.86044 -4.02694 -20.9973 -0.371306 -4.42034 -0.984648 -0.371323 -4.42037 93.9942 -30.7157 -98.5741 4.98698 26.4021 -34.181 -6.47866 -55.4641 -6.26901 -6.17182 -2.17691 37.1731 -84.5026 -3.82909 75.5314 -4.98996 -42.8105 -97.4951 3.60522 40.6693 -4.68307 37.6632 -6.68969 -22.3565 18.2673 3.82641 6.42641 -16.5029 2.21316 -3.26762 
57.8779 95.3695 66.8354 99.6681 1.98956 92.5087 176.801 -1.5704 74.2677 -36.5395 -4.19644 -0.0105239 41.0519 8.99211 6.9388 28.7808 2.88281e-006 2.70239e-006 179.606 11.7002 88.8358 -4.74486 -51.0776 -3.22765 29.2584 18.8763 21.2417 28.7808 1.50761e-005 1.87604e-005 -0.843118 6.8423 -91.2232 13.1062 -2.27183 -4.18637 1.43079 -2.4533 -4.08376 -21.0542 -0.913314 -4.6662 -1.0416 -0.913295 -4.66622 92.46 -26.9084 -102.855 8.89687 23.7219 -33.3639 -6.59552 -56.4565 -6.36036 -9.38948 -3.5242 38.3525 -89.6253 -12.2143 66.0036 -12.1672 -31.1845 -103.809 4.55466 53.2694 -5.6393 30.8002 -7.17778 -27.8915 5.40413 10.8777 15.492 -10.2235 8.14478 -4.28337 
58.975 94.865 66.6865 101.569 9.46545 91.1731 178.514 0.618077 77.0031 -45.5656 0.241129 0.459339 31.9078 1.3203 0.0903484 28.7808 2.88281e-006 2.70239e-006 179.538 8.45518 90.0636 -8.06726 -36.2281 -2.09425 23.0726 16.0751 20.8002 28.7808 1.50761e-005 1.87604e-005 -0.914239 7.04271 -92.46 12.7566 -2.64569 -3.7777 1.08311 -2.81085 -3.65771 -21.4149 -1.37865 -4.39764 -1.40222 -1.37867 -4.39765 91.8338 -25.113 -104.848 11.4698 22.0157 -32.2824 -6.76331 -57.7982 -6.49375 -13.1348 -4.74435 36.37 -94.7844 -18.1705 57.8222 -17.7065 -18.2709 -104.032 5.15728 58.4353 -6.24494 23.4176 -8.18472 -38.4769 -3.55869 15.7675 22.1928 -7.29201 13.4277 -2.72563 
60.5112 92.684 66.6737 104.015 17.0531 87.7701 179.787 2.83042 79.8826 -53.613 9.85669 1.16514 19.9269 -13.9038 -19.256 28.7808 2.88281e-006 2.70239e-006 179.086 14.3302 88.4261 -31.2484 -15.3204 -1.07462 42.3654 13.5057 12.2413 28.7808 1.50761e-005 1.87604e-005 -0.962742 7.42999 -92.215 12.009 -2.30907 -2.68468 0.337392 -2.42759 -2.58043 -22.1817 -1.37811 -3.25463 -2.16902 -1.37815 -3.25465 94.214 -29.2625 -98.5472 13.8823 20.8021 -36.9893 -7.43135 -62.3121 -7.04898 -15.6662 -5.03812 31.8051 -99.3224 -22.2714 51.2789 -24.8699 -1.03655 -98.1842 4.12486 48.5639 -5.20489 20.7002 -10.3813 -53.5097 -4.30164 20.4142 26.9223 -8.76298 17.8674 -4.31515 
61.5364 89.9494 66.9375 105.577 24.7534 85.5184 -178.552 9.94119 82.1298 -67.926 4.34677 1.23372 17.2598 -14.2286 -20.6165 28.7808 2.88281e-006 2.70239e-006 178.986 15.5555 87.9404 -40.5801 -10.1286 -0.857043 58.5112 8.97023 5.94234 28.7808 1.50761e-005 1.87604e-005 -1.34388 7.65003 -92.0085 11.6038 -2.72448 -1.66672 -0.0652343 -2.79538 -1.54519 -22.6063 -2.09713 -2.40828 -2.59364 -2.09713 -2.40831 92.0693 -32.4927 -101.848 15.2209 19.6656 -34.1568 -7.65783 -63.5919 -7.24354 -22.2022 -6.34802 27.2303 -104.251 -25.5095 44.6401 -31.5551 9.24319 -86.531 3.34055 27.2738 -4.73577 -4.68194 0.0562221 -62.0916 -6.04257 24.4335 20.4707 -12.4595 22.207 5.99083 
62.2144 87.5884 67.5143 104.913 31.8381 85.0459 -177.368 20.7568 83.4007 -82.2891 -20.1859 0.109438 31.1518 -11.2006 -12.8966 28.7808 2.88281e-006 2.70239e-006 179.1 18.9618 89.053 -47.654 -2.26698 -0.483446 67.0798 3.75008 2.03564 28.7808 1.50761e-005 1.87604e-005 -1.18407 7.74682 -92.1341 11.4038 -2.49941 -1.77563 -0.265684 -2.5727 -1.66349 -22.8034 -1.85864 -2.44724 -2.79075 -1.85865 -2.44726 91.9261 -30.1664 -102.873 16.2755 18.7783 -29.3052 -7.19665 -60.8625 -6.8503 -29.3976 -6.88425 21.2027 -111.152 -34.7981 39.4758 -28.9423 15.0364 -56.1444 -16.1514 -13.5877 -58.027 -29.7259 -4.65243 15.9048 -10.3238 26.3463 27.513 -10.1122 24.7032 5.09001 
